<svg id="Layer_1" data-name="Layer 1" xmlns="http://www.w3.org/2000/svg" viewBox="0 0 1366 768"><defs><style>.cls-1{fill:none;stroke:#000;stroke-linecap:round;stroke-linejoin:round;}.cls-10,.cls-11,.cls-2,.cls-3,.cls-4,.cls-5,.cls-6,.cls-7,.cls-8,.cls-9{fill-rule:evenodd;}.cls-3{fill:#ffa300;}.cls-4{fill:#7b7b7b;}.cls-5{fill:#cb8200;}.cls-6{fill-opacity:0.56;}.cls-12,.cls-7{fill:#fff;}.cls-8{fill:#794d00;}.cls-9{fill:#cd8300;}.cls-10{fill:#4f4f4f;}.cls-11{fill:#a6a6a6;}</style></defs><line class="cls-1" x1="592.93" y1="224.94" x2="766.84" y2="384.99"/><polygon class="cls-2" points="1035.87 273.61 1021.41 269.73 1068.46 109.92 1081.23 100.36 1132.27 183.3 1122.7 189.68 1081.23 122.69 1035.87 273.61"/><polygon class="cls-3" points="890.22 283.78 1079.23 334.42 978.15 598.2 845.96 562.71 890.22 283.78"/><polygon class="cls-4" points="1079.23 334.42 890.22 283.78 877.47 280.39 906.17 239.12 1021.41 269.73 1035.87 273.61 1095.78 289.56 1095.78 338.81 1079.23 334.42"/><path class="cls-2" d="M852.79,215.3,815.84,580.59H794.15L821.66,215.3Zm-67.68,0L768.85,580.59H743.34l5.43-365.29Zm-74.3,0,6,365.29H692.14L675.67,215.3Zm-64.26,0,25.3,365.29H652.17L618.23,215.3Zm-46.39,0,39.16,365.29h-6.83L590.32,215.3Z"/><path class="cls-3" d="M593.13,135.57a5.06,5.06,0,0,1,.8-1.2q4.43-3.62,8.64-3.62a7.69,7.69,0,0,1,4.42,1,12.37,12.37,0,0,1,2.21,2.61q-2.21-12,5.42-12.05a35.7,35.7,0,0,1,10.64,2.81c1.74,0,2.55-.47,2.41-1.41l-1.6-2.6c2.54,0,5,1.33,7.42,4a35.69,35.69,0,0,1-.2-22.09q3.23-11.85,10.85-11.85a24.93,24.93,0,0,1,4.82,2,20.3,20.3,0,0,1,5.42,3.61,13.64,13.64,0,0,0,3.21-5.22c.41-.26,2.41-.4,6-.4A28.56,28.56,0,0,1,671.85,93a40.21,40.21,0,0,0,12.65,1.8,14.79,14.79,0,0,0,1,4.83,17.72,17.72,0,0,1,.8,4.62q5.63-4.43,7.83-18.48,3.23-19.89,3.42-21.09a26.27,26.27,0,0,1,8.23,3c2.81,1.61,4.49,3.15,5,4.62l1,.2a1.72,1.72,0,0,1,1,1.41A20.09,20.09,0,0,1,716,66.09c.94-1.07,2.35-2.75,4.22-5a12,12,0,0,1,7.63,3.41,7,7,0,0,1,1.81,7.83q2-2,9-12.24,6.22-8.64,7.84-8.64,1.2,0,5.42,4.22c3.21,2.81,5.16,5.15,5.82,7a19.51,19.51,0,0,1,7.43-14.25A19.15,19.15,0,0,1,777.68,44q13.26,0,12.86,11.45c-.14,4.14-.41,9.77-.81,16.86,4.56-1.2,8.3-.67,11.25,1.61a14.5,14.5,0,0,1,1.61,1.41,9.87,9.87,0,0,1,2.2,4.62q-1.6,3.4-3,3.41c-1.61,0-2.41-.67-2.41-2a24,24,0,0,1-3.21,3c-1.47,1.34-2.41,2-2.81,2s-1.28-.67-2.21-2a12.73,12.73,0,0,1-1.61-4q0,4-5.82,11.85a8.66,8.66,0,0,1-2-.2q-5.22,10-7.83,10h-1.21a2.31,2.31,0,0,0-.6.4l-.2.2a4.51,4.51,0,0,1-4,2.21Q764,104.85,764,98q-2.41,5.63-4.42,7.63a7,7,0,0,1-5.42,2.21,3.29,3.29,0,0,1-3.42-2,9.61,9.61,0,0,1-1-2.21,2.49,2.49,0,0,1-1.2,1.21,6,6,0,0,1-4.22,2h-.41a8.76,8.76,0,0,1,.41,4,4.74,4.74,0,0,1-3.42,1l2.41,4.82a.65.65,0,0,0-.6.41l-.4.6h-2.41q4.65.08,6.43,4.82c-2,0-3,.33-3,1a9.55,9.55,0,0,1,2.82,2,8,8,0,0,1,.2,2.41,5.35,5.35,0,0,1-2,4,6,6,0,0,1-2,1.4q-8.83,8.85-11.65,8.84a3.25,3.25,0,0,1-2-.4v-.6c0-1.88.34-3.15,1-3.82h-1a14.18,14.18,0,0,1-3,2.21,11.16,11.16,0,0,1-2.81,1.61c-1.07,0-1.61-.14-1.61-.41s-.26-.6-.4-.6c-.8-1.61-.73-2.94.2-4l2.81-2.82a16.14,16.14,0,0,1-7,2c-1.87,0-3.14-.33-3.81-1q.21-3.21,3.81-6.83c-3.87.27-5.82-.87-5.82-3.41a4.1,4.1,0,0,1,2-3.42c.8-.67,2.08-1.67,3.81-3q-3.81,2-5.22,2a3.1,3.1,0,0,1-2.2-.6,4.71,4.71,0,0,0-1.41-.41v-6.83a6,6,0,0,1-4.42,1.81c-.94,0-1.47-.13-1.6-.4-.41-.4-.67-.6-.81-.6v-4.82a7.89,7.89,0,0,0-2.81-1,6,6,0,0,1,.8,3,7.63,7.63,0,0,1-.8,3.81h-2c1.88,1.07,2.81,2.08,2.81,3a9.17,9.17,0,0,1-.2,2.21,3.88,3.88,0,0,1,1.21-.2,39.07,39.07,0,0,1-1,6.83h.6a3.1,3.1,0,0,1,.41,2q0,5.43-5.83,6.83v-2.21a32.13,32.13,0,0,1-3.21,2q-3.4,2.21-4.62,2.21h-2l-1-1v-2l2-2h-1a8.3,8.3,0,0,1-3.61,1c-2.14.13-3.22-.8-3.22-2.81,0-1.21.68-2.68,2-4.42q2.42-3.61,2.81-4.42a4.34,4.34,0,0,1-2.81.81,9.69,9.69,0,0,1,1.61-7,4.27,4.27,0,0,1-1.61.2,3.27,3.27,0,0,1-2-.4,2.77,2.77,0,0,0-1-.61v-1.81a6.46,6.46,0,0,1-3.81,1.81,18.69,18.69,0,0,1-3.82-.2,1.17,1.17,0,0,1-.2-.8,12.66,12.66,0,0,1-1,5h-1a13.1,13.1,0,0,1-1.6,4.22,12.34,12.34,0,0,1-2.21,2.61h3.81q1,5.63-1.6,6.63a50.88,50.88,0,0,0-7.23,2.2,14.73,14.73,0,0,0-1.21-1.4,7.73,7.73,0,0,1-5.62,2.41,16.27,16.27,0,0,0-4.82-1v-3a.71.71,0,0,0,.8-.8q-3.81-1.82-3.81-3a10.49,10.49,0,0,1,1.2-2c.8-.94,1.41-1.61,1.81-2-2,0-3-.8-3-2.41,0-.14,1-1.94,3-5.42a16.54,16.54,0,0,0-4-1,14.32,14.32,0,0,0,1-3.81h-4q2.2,2,.6,5.82a35.68,35.68,0,0,0-2.41,5,2.48,2.48,0,0,1,1.81.81v12.85h-.81a6.5,6.5,0,0,1,1.81.4q2,1,2,2.61a5.51,5.51,0,0,1-1,2.81c-.81,1.34-1.74,2-2.82,2a3,3,0,0,1-2.6-1.41c-.67-1.07-1.27-1.6-1.81-1.6a1.72,1.72,0,0,0-1.81,1,1.73,1.73,0,0,1-1.81,1h-1.4c-2,3.34-4,5-5.83,5a5.32,5.32,0,0,0-2,.4,15.23,15.23,0,0,1-4.42.4.62.62,0,0,0-.41-.6l-.6-.2v-6a19.69,19.69,0,0,1-4.82,4c-2.27,1.34-4,2-5,2q-3.81,0-8.83-5A16,16,0,0,1,593.13,135.57Zm279.74,5.63a6.63,6.63,0,0,1-1.61,1.8,10.33,10.33,0,0,1-6.22,2.21,15.89,15.89,0,0,1-4.62-.4c-1.74-.53-2.48-2.08-2.21-4.62-.94,1.34-1.94,2-3,2q-7,0-6-6.83-2.2.81-4.21-2.21a12.79,12.79,0,0,1-1.41-7.63,8.5,8.5,0,0,1-5,.81v.6q-2.4,11.44-8.23,11.44c-1.07,0-1.67-.2-1.81-.6a1.14,1.14,0,0,0-.8-.4v-3a12.23,12.23,0,0,0-2.81,3c-1.21,1.2-2,1.81-2.41,1.81h-1.81a2.47,2.47,0,0,1-.4-.61c-.67,1.08-1.41,2.28-2.21,3.62l-4-3.82a9,9,0,0,1-2,2.82c-1.07,1.33-2,2-2.81,2A5,5,0,0,1,805,141a2.49,2.49,0,0,1-.8-1.8,12,12,0,0,1-7.83,3,38.78,38.78,0,0,0-6.83-1v-3.82h.2c.54,0,.81-.34.81-1a6.43,6.43,0,0,0-1,.4,6.13,6.13,0,0,1-4.82-.4,9.52,9.52,0,0,1,1.21-5,8.42,8.42,0,0,1,.6-1c-.13,0-.34.27-.6.81a16.8,16.8,0,0,0-2.21,2.2,5.73,5.73,0,0,1-4.42,2,3.13,3.13,0,0,1-2.21-.6,9.32,9.32,0,0,1-1.2-1.41,4.86,4.86,0,0,1,1.2-.8c-2.81-.13-4.22-1.14-4.22-3a3.16,3.16,0,0,1,.41-2,3,3,0,0,0,.6-1h2v-.61c0-1.6.93-3.34,2.81-5.22l.8-.8c1.61-1.47,3-2.21,4.22-2.21.67,0,2.27,1,4.82,3a10.91,10.91,0,0,1,4-2,46,46,0,0,0,6.82.61l1,.4c.66.26,1,1.41,1,3.41s-.47,3.15-1.41,3.82a9.82,9.82,0,0,0-2.6,1.8v2a74.78,74.78,0,0,1,10.84-8.63c4.68-3.08,7.7-4.62,9-4.62a12,12,0,0,1,7.44,2.61,27.5,27.5,0,0,1,1-4.82,60,60,0,0,0,1.81-12.85h9.44v5.62c1.74-2.94,3.07-4.62,4-5,.54-.4,2-.6,4.42-.6a14.54,14.54,0,0,1,10.44,3.81,10.93,10.93,0,0,1,3.62,8.24,8.15,8.15,0,0,1-1,4.62,13.9,13.9,0,0,0-2.61,2,14.2,14.2,0,0,1,7.63,3.21c2.41,1.6,3.62,3.08,3.62,4.41a8.5,8.5,0,0,1-1.21,4.82,25.17,25.17,0,0,1-2.41,2.82q4.83-.81,9,4.41Zm-57,439.39L852.79,215.3h17.87L828.49,580.59Zm-47,0L785.11,215.3h36.55L794.15,580.59Zm-52,0-6-365.29h38l-5.43,365.29Zm-45,0L646.55,215.3h29.12l16.47,365.29ZM618.23,215.3l33.94,365.29H639.32L600.16,215.3Zm206.45-95.19a40.42,40.42,0,0,0-.81,6.63h1.81v-5.62A3.7,3.7,0,0,1,824.68,120.11Z"/><polygon class="cls-4" points="748.76 215.3 710.81 215.3 675.67 215.3 646.55 215.3 618.23 215.3 600.16 215.3 590.32 215.3 571.45 215.3 571.45 151.24 588.71 151.24 876.28 151.24 895.16 151.24 895.16 215.3 870.66 215.3 852.79 215.3 821.66 215.3 785.11 215.3 748.76 215.3"/><path class="cls-5" d="M876.28,151.24H588.71a9.88,9.88,0,0,1-.4-2.61q0-8,4.82-13.06a16,16,0,0,0,4,5.63q5,5,8.83,5c1.07,0,2.75-.67,5-2a19.69,19.69,0,0,0,4.82-4v6l.6.2a.62.62,0,0,1,.41.6,15.23,15.23,0,0,0,4.42-.4,5.32,5.32,0,0,1,2-.4c1.88,0,3.82-1.68,5.83-5h1.4a1.73,1.73,0,0,0,1.81-1,1.72,1.72,0,0,1,1.81-1c.54,0,1.14.53,1.81,1.6a3,3,0,0,0,2.6,1.41c1.08,0,2-.67,2.82-2a5.51,5.51,0,0,0,1-2.81q0-1.6-2-2.61a6.5,6.5,0,0,0-1.81-.4h.81V121.52a2.48,2.48,0,0,0-1.81-.81,35.68,35.68,0,0,1,2.41-5q1.61-3.81-.6-5.82h4a14.32,14.32,0,0,1-1,3.81,16.54,16.54,0,0,1,4,1c-2,3.48-3,5.28-3,5.42,0,1.61,1,2.41,3,2.41-.4.4-1,1.07-1.81,2a10.49,10.49,0,0,0-1.2,2q0,1.2,3.81,3a.71.71,0,0,1-.8.8v3a16.27,16.27,0,0,1,4.82,1,7.73,7.73,0,0,0,5.62-2.41,14.73,14.73,0,0,1,1.21,1.4,50.88,50.88,0,0,1,7.23-2.2q2.61-1,1.6-6.63H663a12.34,12.34,0,0,0,2.21-2.61,13.1,13.1,0,0,0,1.6-4.22h1a12.66,12.66,0,0,0,1-5,1.17,1.17,0,0,0,.2.8,18.69,18.69,0,0,0,3.82.2,6.46,6.46,0,0,0,3.81-1.81v1.81a2.77,2.77,0,0,1,1,.61,3.27,3.27,0,0,0,2,.4,4.27,4.27,0,0,0,1.61-.2,9.69,9.69,0,0,0-1.61,7,4.34,4.34,0,0,0,2.81-.81q-.39.81-2.81,4.42c-1.33,1.74-2,3.21-2,4.42,0,2,1.08,2.94,3.22,2.81a8.3,8.3,0,0,0,3.61-1h1l-2,2v2l1,1h2q1.22,0,4.62-2.21a32.13,32.13,0,0,0,3.21-2v2.21q5.83-1.41,5.83-6.83a3.1,3.1,0,0,0-.41-2h-.6a39.07,39.07,0,0,0,1-6.83,3.88,3.88,0,0,0-1.21.2,9.17,9.17,0,0,0,.2-2.21c0-.93-.93-1.94-2.81-3h2a7.63,7.63,0,0,0,.8-3.81,6,6,0,0,0-.8-3,7.89,7.89,0,0,1,2.81,1v4.82c.14,0,.4.2.81.6.13.27.66.4,1.6.4a6,6,0,0,0,4.42-1.81v6.83a4.71,4.71,0,0,1,1.41.41,3.1,3.1,0,0,0,2.2.6q1.41,0,5.22-2c-1.73,1.34-3,2.34-3.81,3a4.1,4.1,0,0,0-2,3.42c0,2.54,2,3.68,5.82,3.41q-3.6,3.61-3.81,6.83c.67.67,1.94,1,3.81,1a16.14,16.14,0,0,0,7-2l-2.81,2.82c-.93,1.07-1,2.4-.2,4,.14,0,.27.2.4.6s.54.41,1.61.41a11.16,11.16,0,0,0,2.81-1.61,14.18,14.18,0,0,0,3-2.21h1c-.67.67-1,1.94-1,3.82v.6a3.25,3.25,0,0,0,2,.4q2.82,0,11.65-8.84a6,6,0,0,0,2-1.4,5.35,5.35,0,0,0,2-4,8,8,0,0,0-.2-2.41,9.55,9.55,0,0,0-2.82-2c0-.67,1-1,3-1q-1.79-4.74-6.43-4.82h2.41l.4-.6a.65.65,0,0,1,.6-.41l-2.41-4.82a4.74,4.74,0,0,0,3.42-1,8.76,8.76,0,0,0-.41-4h.41a6,6,0,0,0,4.22-2,2.49,2.49,0,0,0,1.2-1.21,9.61,9.61,0,0,0,1,2.21,3.29,3.29,0,0,0,3.42,2,7,7,0,0,0,5.42-2.21q2-2,4.42-7.63,0,6.83,3.81,6.83a4.51,4.51,0,0,0,4-2.21l.2-.2a2.31,2.31,0,0,1,.6-.4h1.21q2.61,0,7.83-10a8.66,8.66,0,0,0,2,.2q5.82-7.83,5.82-11.85a12.73,12.73,0,0,0,1.61,4c.93,1.34,1.67,2,2.21,2s1.34-.67,2.81-2a24,24,0,0,0,3.21-3c0,1.34.8,2,2.41,2q1.41,0,3-3.41a15.21,15.21,0,0,1,.2,2.61q0,6.22-7.42,11.84-6.63,4.62-9.45,4.22c.68.41,2,2.08,4,5q3.23,5,3.22,5.22,0,5.63-11.25,8.64a42.47,42.47,0,0,1,6.83,1,6.29,6.29,0,0,0,1.61.2,10.91,10.91,0,0,0-4,2c-2.55-2-4.15-3-4.82-3-1.21,0-2.61.74-4.22,2.21l-.8.8c-1.88,1.88-2.81,3.62-2.81,5.22v.61h-2a3,3,0,0,1-.6,1,3.16,3.16,0,0,0-.41,2c0,1.87,1.41,2.88,4.22,3a4.86,4.86,0,0,0-1.2.8,9.32,9.32,0,0,0,1.2,1.41,3.13,3.13,0,0,0,2.21.6,5.73,5.73,0,0,0,4.42-2,16.8,16.8,0,0,1,2.21-2.2c.26-.54.47-.81.6-.81a8.42,8.42,0,0,0-.6,1,9.52,9.52,0,0,0-1.21,5,6.13,6.13,0,0,0,4.82.4,6.43,6.43,0,0,1,1-.4c0,.66-.27,1-.81,1h-.2v3.82a38.78,38.78,0,0,1,6.83,1,12,12,0,0,0,7.83-3,2.49,2.49,0,0,0,.8,1.8,5,5,0,0,0,4.22,2.22c.8,0,1.74-.68,2.81-2a9,9,0,0,0,2-2.82l4,3.82c.8-1.34,1.54-2.54,2.21-3.62a2.47,2.47,0,0,0,.4.61h1.81c.4,0,1.2-.61,2.41-1.81a12.23,12.23,0,0,1,2.81-3v3a1.14,1.14,0,0,1,.8.4c.14.4.74.6,1.81.6q5.82,0,8.23-11.44v-.6a8.5,8.5,0,0,0,5-.81,12.79,12.79,0,0,0,1.41,7.63q2,3,4.21,2.21-1,6.82,6,6.83c1.07,0,2.07-.67,3-2-.27,2.54.47,4.09,2.21,4.62a15.89,15.89,0,0,0,4.62.4,10.33,10.33,0,0,0,6.22-2.21,6.63,6.63,0,0,0,1.61-1.8,14.6,14.6,0,0,1,3.41,9Z"/><path class="cls-6" d="M927.49,620.35l-85.14-24.7,24.7-167.28,60.44,12.05Zm-81.13-195.6-23.69,212-185.76-6.93-44-392L749.27,381.38,733.1,408.29Z"/><path class="cls-3" d="M804.05,446.77l61.28,9q17.38,2.58,17.38,20.36V515.8l-23.64-2q-.69-21.25-15.89-38.24-16.09-18.17-39.13-21.85ZM704.92,501.3V453.52q-.1-21.64,24.33-18.08l70.43,10.63v7.06q-24.43-2.69-42.52,11.82-19.26,14.9-20.06,39Zm94.76,74.89-70.43-.7q-24.43-.29-24.33-21.75V506l32.18,2.48q.69,24.44,20.06,42.71,18.09,17.19,42.52,18.47Zm83-56.61V559q0,17.78-17.38,17.68l-61.28-.5v-6.46q23-.29,39.13-15.59a51.11,51.11,0,0,0,15.89-36.35Zm-78.66-58.71v-4q21.86,3.48,37,20.56,14.49,16.1,15.2,36.15l-4-.29q-.69-18.68-14.1-33.48A57.17,57.17,0,0,0,804.05,460.87Zm-4.37-4.67v4.17Q778.62,458.29,763,471q-16.39,12.92-17.19,33.58l-4.86-.3q.88-22.65,18.77-36.65Q776.73,453.82,799.68,456.2Zm0,7.55v5.17l4.37.49v-5.16a52.26,52.26,0,0,1,31.88,17.58q12.62,13.91,13.31,31.29l-5-.4v4l5,.3a42.14,42.14,0,0,1-13.31,29.6Q822.82,558.91,804.05,559v-4.77l-4.37-.2v4.87a53.39,53.39,0,0,1-34.07-15.3q-15.11-14.79-15.9-34.17l6.46.4v-4.37l-6.46-.5a40.75,40.75,0,0,1,15.9-31.19Q780.12,462,799.68,463.75Zm-10.63,34.77v33.87l-3.87-.2v16.39l32.28,1.19v-1.19l8.84.29V532.69l-3.68-.2V477l-18-2.18-4.38,3.33-3.87-.45-16.59,12.61V501.4l7.85-4v1.78ZM741,508.75l4.86.29q.7,21.07,17.19,36.86a56.59,56.59,0,0,0,36.65,16.19v4.27a61.84,61.84,0,0,1-39.93-17.49Q741.66,531.69,741,508.75Zm111.24,8.54,4,.3A48.32,48.32,0,0,1,841,551.86q-15.11,14.4-37,14.6v-4.27q20.16-.11,34.07-13.32A44,44,0,0,0,852.22,517.29Z"/><path class="cls-2" d="M908.54,492.26,892,490.37v14.3l16.59,1.59ZM892,456.9l16.59,2.48v-9l5.66,1V588.51h-5.66v-7L892,581.46v7.15L689.32,589.7v-8.84h-27v9l-11.13.1V408.13L662.31,410v11.72l27,4.17V414.49L892,447.66Zm16.59,12.81L892,467.43v14.2l16.59,2ZM704.92,506v47.77q-.1,21.46,24.33,21.75l70.43.7h4.37l61.28.5q17.38.09,17.38-17.68V476.17q0-17.78-17.38-20.36l-61.28-9-4.37-.7-70.43-10.63q-24.43-3.57-24.33,18.08V506Zm203.62,8.14L892,512.72v14.21l16.59,1.19Zm0,44.8-16.59-.5v14.21l16.59.29ZM892,535.77v14.3l16.59.59v-13.9Zm-229.64-53,27,2.59V467.63l-27-3Zm0,10.33v18.18l27,1.89V495.34Zm27-36.45V438.92l-27-3.77v18.18Zm-27,112.94,27,.29V552.15l-27-.79Zm27-27.82V524.05l-27-1.6v18.18Z"/><path class="cls-7" d="M882.71,519.58l-23.64-1.79a51.11,51.11,0,0,1-15.89,36.35q-16.09,15.3-39.13,15.59v6.46h-4.37v-6.56q-24.43-1.27-42.52-18.47-19.36-18.27-20.06-42.71L704.92,506V501.3L737.1,504q.79-24.14,20.06-39,18.09-14.51,42.52-11.82v-7.06l4.37.7v7q23,3.67,39.13,21.85,15.2,17,15.89,38.24l23.64,2Zm-83-55.83q-19.57-1.78-34.07,10A40.75,40.75,0,0,0,749.71,505l6.46.5v4.37l-6.46-.4q.79,19.38,15.9,34.17a53.39,53.39,0,0,0,34.07,15.3V554l4.37.2V559q18.78-.1,31.88-12.42A42.14,42.14,0,0,0,849.24,517l-5-.3v-4l5,.4q-.69-17.39-13.31-31.29a52.26,52.26,0,0,0-31.88-17.58v5.16l-4.37-.49Zm0-7.55q-22.95-2.37-39.93,11.43-17.88,14-18.77,36.65l4.86.3Q746.64,483.91,763,471q15.59-12.71,36.65-10.63Zm4.37,4.67a57.17,57.17,0,0,1,34.07,19q13.41,14.81,14.1,33.48l4,.29q-.71-20.06-15.2-36.15-15.11-17.08-37-20.56Zm48.17,56.42a44,44,0,0,1-14.1,31.58q-13.9,13.21-34.07,13.32v4.27q21.86-.21,37-14.6a48.32,48.32,0,0,0,15.2-34.27ZM741,508.75q.69,22.95,18.77,40.12a61.84,61.84,0,0,0,39.93,17.49v-4.27A56.59,56.59,0,0,1,763,545.9q-16.5-15.79-17.19-36.86Z"/><path class="cls-8" d="M787.66,497.43l-7.85,4V490.27l16.59-12.61,3.87.45-12.61,9.68Zm29.8,51.15v1.19l-32.28-1.19V532.19l3.87.2V498.52l8-4.17V531l-4-.2v16.89Z"/><polygon class="cls-4" points="817.46 548.58 793.12 547.69 793.12 530.8 797.1 531 797.1 494.35 789.05 498.52 787.66 499.21 787.66 497.43 787.66 487.79 800.27 478.11 804.64 474.78 822.62 476.96 822.62 532.49 826.3 532.69 826.3 548.88 817.46 548.58"/><path class="cls-2" d="M317.53,310.62l325.7,188.06L665,461.06q20.77-36-16-57.22L396.81,258.28Q360,237,339.24,273ZM290.78,357l-14.24,24.66L344.67,421l14.24-24.66Zm2.75-4.77,107.66,62.16,21.24-36.8L314.77,315.39Zm-19.75,34.2-13,22.48,68.14,39.35,13-22.49Zm310,215.31L258.05,413.65l-8.43,14.58a64.77,64.77,0,0,0-4.92,10.42,46.6,46.6,0,0,0-1.59,5.44q-5.62,24.92,22.62,41.22L517.84,630.88q28.24,16.3,47-1a49.65,49.65,0,0,0,3.92-4.1,64.53,64.53,0,0,0,6.55-9.48Zm56.74-98.25L532.14,440.89l-21.25,36.8,108.34,62.55Zm-54,93.48,30-51.92L364.37,399.45l-30,51.91ZM503.39,473.36l21.25-36.79-94-54.3-21.24,36.8Z"/><path class="cls-7" d="M273.78,386.39l68.14,39.34-13,22.49L260.8,408.87l-2.75,4.78L583.74,601.7l2.76-4.77L334.39,451.36l30-51.91L616.48,545l2.75-4.77L510.89,477.69l21.25-36.8,108.34,62.56,2.75-4.77L317.53,310.62l-2.76,4.77,107.66,62.16-21.24,36.8L293.53,352.19,290.78,357l68.13,39.34L344.67,421l-68.13-39.34Zm229.61,87-94-54.29,21.24-36.8,94,54.3Z"/><path class="cls-3" d="M383.75,304.34l-12.38-62.57L356,232.91l-24,41.57Zm21-43.3,12.39,62.58,12.27,7.08L417,268.13Zm45.66,26.36L462.79,350l12.27,7.08-12.39-62.57Zm45.65,26.36,12.39,62.58,10.9,6.29L507,320.06Zm44.29,25.58,12.39,62.57L670,469.61l24-41.56Z"/><path class="cls-2" d="M417.14,323.62,404.75,261l-33.38-19.27,12.38,62.57ZM417,268.13l12.39,62.57L462.79,350,450.41,287.4Zm91.43,108.21-12.39-62.58-33.39-19.27,12.39,62.57ZM507,320.06l12.39,62.57,33.39,19.28-12.39-62.57Z"/><path class="cls-3" d="M487,140.14l-63.83,1.21-11.92-13.1,35.54-32.32Zm-37.86,29.75,63.82-1.21,9.53,10.48-63.82,1.22Zm35.49,39,63.82-1.21L558,218.19l-63.82,1.21Zm133.75,75.67,91.18,100.24L674,417.15,554.53,285.8ZM520.1,247.94l63.82-1.21,8.48,9.32-63.83,1.21Z"/><path class="cls-2" d="M423.14,141.35,487,140.14l26,28.54-63.82,1.21Zm35.5,39,63.82-1.22,26,28.55-63.82,1.21Zm61.46,67.56-26-28.54L558,218.19l26,28.54Zm98.25,36.65-63.82,1.21-26-28.54,63.83-1.21Z"/><path class="cls-3" d="M685.15,381.69a12.29,12.29,0,0,0-7.75,5.88,12.91,12.91,0,0,0,4.6,17.2,12.28,12.28,0,0,0,9.66,1.22,12,12,0,0,0,7.54-5.83A12.36,12.36,0,0,0,694.59,383,12,12,0,0,0,685.15,381.69Zm-22.07,47a7.9,7.9,0,0,1,6.44.81,8.6,8.6,0,0,1,3.11,11.61,7.84,7.84,0,0,1-5.17,3.92,8,8,0,0,1-6.52-.67,9.2,9.2,0,0,1-3.17-11.83A8,8,0,0,1,663.08,428.73ZM690.49,402a8,8,0,0,1-6.52-.68,9.18,9.18,0,0,1-3.17-11.82,8,8,0,0,1,5.31-3.84,7.82,7.82,0,0,1,6.44.81,8.6,8.6,0,0,1,3.11,11.61A7.84,7.84,0,0,1,690.49,402Zm-28.37,22.69a12.23,12.23,0,0,0-7.75,5.88A12.89,12.89,0,0,0,659,447.8a12.23,12.23,0,0,0,9.66,1.22,12,12,0,0,0,7.54-5.82,12.34,12.34,0,0,0-4.61-17.2A12,12,0,0,0,662.12,424.73Zm-43.19-21.49a8.21,8.21,0,0,1-.81,6.44,8.87,8.87,0,0,1-11.69,3.24,9.18,9.18,0,0,1-3.17-11.82,8,8,0,0,1,5.31-3.84,7.82,7.82,0,0,1,6.44.81A8.15,8.15,0,0,1,618.93,403.24Zm2.73,8.48a12.35,12.35,0,0,0-4.61-17.19,12,12,0,0,0-9.44-1.27,12.21,12.21,0,0,0-7.75,5.87,12.91,12.91,0,0,0,4.6,17.2,12.28,12.28,0,0,0,9.66,1.22A12,12,0,0,0,621.66,411.72Z"/><path class="cls-4" d="M685.15,381.69a12,12,0,0,1,9.44,1.28,12.36,12.36,0,0,1,4.61,17.19,12,12,0,0,1-7.54,5.83,12.28,12.28,0,0,1-9.66-1.22,12.91,12.91,0,0,1-4.6-17.2A12.29,12.29,0,0,1,685.15,381.69Zm-23,43a12,12,0,0,1,9.44,1.27,12.34,12.34,0,0,1,4.61,17.2,12,12,0,0,1-7.54,5.82A12.23,12.23,0,0,1,659,447.8a12.89,12.89,0,0,1-4.6-17.19A12.23,12.23,0,0,1,662.12,424.73Zm-40.46-13a12,12,0,0,1-7.54,5.83,12.28,12.28,0,0,1-9.66-1.22,12.91,12.91,0,0,1-4.6-17.2,12.21,12.21,0,0,1,7.75-5.87,12,12,0,0,1,9.44,1.27,12.35,12.35,0,0,1,4.61,17.19ZM670,469.61,721.15,381q-90-64.69-149.27,31.94Z"/><path class="cls-2" d="M690.49,402a7.84,7.84,0,0,0,5.17-3.92,8.6,8.6,0,0,0-3.11-11.61,7.82,7.82,0,0,0-6.44-.81,8,8,0,0,0-5.31,3.84A9.18,9.18,0,0,0,684,401.36,8,8,0,0,0,690.49,402Zm-27.41,26.69a8,8,0,0,0-5.31,3.84,9.2,9.2,0,0,0,3.17,11.83,8,8,0,0,0,6.52.67,7.84,7.84,0,0,0,5.17-3.92,8.6,8.6,0,0,0-3.11-11.61A7.9,7.9,0,0,0,663.08,428.73Zm-44.15-25.49a8.15,8.15,0,0,0-3.92-5.17,7.82,7.82,0,0,0-6.44-.81,8,8,0,0,0-5.31,3.84,9.18,9.18,0,0,0,3.17,11.82,8.87,8.87,0,0,0,11.69-3.24A8.21,8.21,0,0,0,618.93,403.24Z"/><path class="cls-6" d="M419.22,482.59q-5.27-8.37-9-13.76,13.56-10.21,35.14-26,29.4-21.42,55.42-39.56,13.51,17.19,51.21,67.37-12.57-44.17-17.77-63.46,14-3.9,48.9-12.95,23.5-6,66-16.87,6,25.09,21.79,93,18.54,77.06,32.93,126.41-67.54,4-104.82,6.13-64.55,3.87-86.36,7.43Q425,491.63,419.22,482.59Z"/><path class="cls-3" d="M495.35,421.71,626.27,589.1l-1.9,1.48a4.35,4.35,0,0,0-1.11-.34,3.61,3.61,0,0,0-2.44.8,3.21,3.21,0,0,0-1.24,2.09,3.5,3.5,0,0,0,0,1.17l-1.3,1a4,4,0,0,0-1.11-.35,3.61,3.61,0,0,0-2.44.8,3.21,3.21,0,0,0-1.24,2.09,3.5,3.5,0,0,0,0,1.17l-1.88,1.47a3.23,3.23,0,0,0-1.1-.35,3.63,3.63,0,0,0-2.45.8A3.24,3.24,0,0,0,606.9,603a4.38,4.38,0,0,0,0,1.2l-1.55,1.22a3.08,3.08,0,0,0-1.11-.35,3.59,3.59,0,0,0-2.44.8,3.25,3.25,0,0,0-1.25,2.09,4.81,4.81,0,0,0,0,1.2l-1.84,1.44a2.89,2.89,0,0,0-1.1-.34,3.56,3.56,0,0,0-2.45.79,3.29,3.29,0,0,0-1.25,2.09,4.8,4.8,0,0,0,0,1.2l-1.56,1.22a3,3,0,0,0-1.1-.35,3.62,3.62,0,0,0-2.45.8,3.24,3.24,0,0,0-1.24,2.09,4.38,4.38,0,0,0,0,1.2L585.48,621a3.07,3.07,0,0,0-1.11-.34,3.59,3.59,0,0,0-2.44.8,3.2,3.2,0,0,0-1.24,2.09,4.38,4.38,0,0,0,0,1.2l-1.26,1a3.27,3.27,0,0,0-1.11-.34,3.59,3.59,0,0,0-2.44.8,3.25,3.25,0,0,0-1.25,2.09,4.37,4.37,0,0,0,0,1.2l-1.85,1.44a3.23,3.23,0,0,0-1.1-.35,3.67,3.67,0,0,0-2.45.8,3.24,3.24,0,0,0-1.24,2.09,4.38,4.38,0,0,0,0,1.2l-1.56,1.22a3,3,0,0,0-1.1-.35,3.62,3.62,0,0,0-2.45.8,3.21,3.21,0,0,0-1.24,2.09,4.38,4.38,0,0,0,0,1.2l-1.85,1.44a3,3,0,0,0-1.1-.35,3.59,3.59,0,0,0-2.44.8A3.25,3.25,0,0,0,555,643.6a4.38,4.38,0,0,0,0,1.2L553.5,646a3.08,3.08,0,0,0-1.11-.35,3.61,3.61,0,0,0-2.44.8,3.25,3.25,0,0,0-1.25,2.08,4.36,4.36,0,0,0,0,1.2l-1,.77a3,3,0,0,0-1.1-.34,3.63,3.63,0,0,0-2.44.79,3.23,3.23,0,0,0-1.25,2.09,4.38,4.38,0,0,0,0,1.2l-1.09.86L410.94,487.73Z"/><path class="cls-2" d="M485.16,442q9.49-5.21,17.11,4.54l96.17,123q7.62,9.74.28,17.7a26.61,26.61,0,0,1-2.69,2.38,10,10,0,0,0-3.64-1.7,20.28,20.28,0,0,0-9,0l-2.36.55a24.66,24.66,0,0,0,1.81,2.67,24,24,0,0,0,2.25,2.51,23.63,23.63,0,0,0,2.89,2.29L554.37,622.2a21.22,21.22,0,0,0-2-3l0-.05a20.35,20.35,0,0,0-4-3.93.19.19,0,0,0-.07.14,20.93,20.93,0,0,0-2.22,8.8,9.9,9.9,0,0,0,.77,4l-4,3.15q-11.28,8.84-20.12-2.46l-96.18-123q-8.82-11.29,2.47-20.13l4-3.15a10.14,10.14,0,0,0,3.65,1.7,20.78,20.78,0,0,0,9.07,0,.2.2,0,0,0,.16,0,20.23,20.23,0,0,0-2.85-4.83l0-.06a22.81,22.81,0,0,0-2.44-2.65l33.65-26.31a22,22,0,0,0,1.52,3.36,24,24,0,0,0,4.05,5.19c.37-.72.74-1.44,1.1-2.16A20.08,20.08,0,0,0,483,448a10.09,10.09,0,0,0-.77-4A26.54,26.54,0,0,1,485.16,442Zm25.94,18.8c-.54.49-1.11,1-1.68,1.41a23.17,23.17,0,0,1-17.75,5,23.75,23.75,0,0,1-11.73-4.66,59.7,59.7,0,0,1-12.71,13.19,67.93,67.93,0,0,1-7.06,4.87c-.79.49-1.58.95-2.36,1.38a49.25,49.25,0,0,1-8.69,3.73,22.85,22.85,0,0,1,.88,9.9,23.47,23.47,0,0,1-9.16,16.08,25.27,25.27,0,0,1-5,3.09l80.4,102.79a25.65,25.65,0,0,1,4.2-4.12,23.47,23.47,0,0,1,17.81-5,22.82,22.82,0,0,1,9.41,3.24,49.38,49.38,0,0,1,5.71-7.54c.6-.65,1.24-1.31,1.91-1.95a66.44,66.44,0,0,1,6.43-5.68,59.78,59.78,0,0,1,15.86-9.16,23.62,23.62,0,0,1-1.7-12.5,23.16,23.16,0,0,1,9.1-16c.58-.46,1.16-.89,1.77-1.3Zm-1.62-2.07-6.8-8.7q-7.4-9.45-16.58-4.22a22.92,22.92,0,0,1-2.41,10.34,46.18,46.18,0,0,1-2.29,4.2,22.09,22.09,0,0,0,10.68,4.28,20.85,20.85,0,0,0,15.82-4.48A15.47,15.47,0,0,0,509.48,458.77Zm-12.22,11.69L572.75,567l-2.88,2.26-75.49-96.52Zm-18.93-9.25a28.34,28.34,0,0,1-2.8-3.1,25.91,25.91,0,0,1-1.9-2.78l-28.69,22.44,0,.05a24.91,24.91,0,0,1,3.41,5.79,40.53,40.53,0,0,0,8.12-3.28,25.73,25.73,0,0,0,2.4-1.32,54.25,54.25,0,0,0,7.2-4.8A52.8,52.8,0,0,0,478.33,461.21ZM432.2,487.73q-10.89,8.52-2.42,19.35l4.38,5.58a21.3,21.3,0,0,0,12.53-26.24,23.29,23.29,0,0,1-2.36.55q-6.61,1.27-11-.15Zm22.42,16.08,75.49,96.51-2.88,2.25-75.49-96.51Zm133.73,55.8a14.71,14.71,0,0,0-1.77,1.18,20.9,20.9,0,0,0-8.15,14.28,22,22,0,0,0,1.58,11.4,42.32,42.32,0,0,1,4.63-1.21,22.73,22.73,0,0,1,10.61.15q7.29-7.65-.1-17.1Zm-9.88,29.64A53,53,0,0,0,562.91,598a53.74,53.74,0,0,0-6.39,5.84,23.41,23.41,0,0,0-1.86,2,40.21,40.21,0,0,0-5.14,7.08,24.73,24.73,0,0,1,4.79,4.7l.05.06,28.69-22.45a22.83,22.83,0,0,1-2.24-2.51A27,27,0,0,1,578.47,589.25ZM545.28,616a21.83,21.83,0,0,1,1.1-2.16,21.7,21.7,0,0,0-28.49,5.84l4.37,5.6q8.47,10.83,19.36,2.31l1.15-.9Q542.45,622.16,545.28,616Z"/><path class="cls-7" d="M511.1,460.84l75.62,96.69c-.61.41-1.19.84-1.77,1.3a23.16,23.16,0,0,0-9.1,16,23.62,23.62,0,0,0,1.7,12.5,59.78,59.78,0,0,0-15.86,9.16,66.44,66.44,0,0,0-6.43,5.68c-.67.64-1.31,1.3-1.91,1.95a49.38,49.38,0,0,0-5.71,7.54,22.82,22.82,0,0,0-9.41-3.24,23.47,23.47,0,0,0-17.81,5,25.65,25.65,0,0,0-4.2,4.12L435.82,514.8a25.27,25.27,0,0,0,5-3.09A23.47,23.47,0,0,0,450,495.63a22.85,22.85,0,0,0-.88-9.9,49.25,49.25,0,0,0,8.69-3.73c.78-.43,1.57-.89,2.36-1.38a67.93,67.93,0,0,0,7.06-4.87,59.7,59.7,0,0,0,12.71-13.19,23.75,23.75,0,0,0,11.73,4.66,23.17,23.17,0,0,0,17.75-5C510,461.8,510.56,461.33,511.1,460.84Zm-13.84,9.62-2.88,2.25,75.49,96.52,2.88-2.26Zm12.22-11.69a15.47,15.47,0,0,1-1.58,1.42,20.85,20.85,0,0,1-15.82,4.48,22.09,22.09,0,0,1-10.68-4.28,46.18,46.18,0,0,0,2.29-4.2,22.92,22.92,0,0,0,2.41-10.34q9.18-5.24,16.58,4.22Zm-31.15,2.44a52.8,52.8,0,0,1-12.22,13,54.25,54.25,0,0,1-7.2,4.8,25.73,25.73,0,0,1-2.4,1.32,40.53,40.53,0,0,1-8.12,3.28,24.91,24.91,0,0,0-3.41-5.79l0-.05,28.69-22.44a25.91,25.91,0,0,0,1.9,2.78A28.34,28.34,0,0,0,478.33,461.21Zm-23.71,42.6-2.88,2.25,75.49,96.51,2.88-2.25ZM432.2,487.73l1.15-.91q4.36,1.43,11,.15a23.29,23.29,0,0,0,2.36-.55,21.67,21.67,0,0,1-12.53,26.24l-4.38-5.58Q421.32,496.24,432.2,487.73Zm156.15,71.88,6.8,8.7q7.4,9.44.1,17.1a22.73,22.73,0,0,0-10.61-.15,42.32,42.32,0,0,0-4.63,1.21,22,22,0,0,1-1.58-11.4,20.9,20.9,0,0,1,8.15-14.28A14.71,14.71,0,0,1,588.35,559.61Zm-9.88,29.64a27,27,0,0,0,2.34,3.46,22.83,22.83,0,0,0,2.24,2.51l-28.69,22.45-.05-.06a24.73,24.73,0,0,0-4.79-4.7,40.21,40.21,0,0,1,5.14-7.08,23.41,23.41,0,0,1,1.86-2,53.74,53.74,0,0,1,6.39-5.84A53,53,0,0,1,578.47,589.25ZM545.28,616q-2.84,6.11-2.51,10.69l-1.15.9q-10.89,8.5-19.36-2.31l-4.37-5.6a21.32,21.32,0,0,1,28.49-5.84A21.83,21.83,0,0,0,545.28,616Z"/><polygon class="cls-3" points="574.7 607.76 579.28 613.62 572.21 611.6 567.96 618.18 567.57 610.29 559.72 608.01 567.39 605.22 567.06 597.98 571.53 603.7 579.08 600.9 574.7 607.76"/><polygon class="cls-3" points="479.11 475.21 483.7 481.08 476.62 479.06 472.37 485.64 471.98 477.75 464.13 475.47 471.8 472.68 471.47 465.44 475.95 471.16 483.49 468.36 479.11 475.21"/><path class="cls-3" d="M512,470l3.11-1.13-1.76,2.86,1.85,2.37-2.93-.78L510.5,476l-.12-3.25-3.33-.93,3.21-1.12-.15-3Zm16.09,15.47-1.76,2.86,1.85,2.36-2.93-.77-1.73,2.65-.12-3.24-3.33-.93,3.21-1.12-.15-3,1.85,2.36Zm-6.58-3.31-2.93-.77-1.73,2.65-.12-3.24-3.33-.93,3.21-1.12-.15-3,1.85,2.36,3.11-1.13-1.76,2.86Zm11.45,14.64,1.84,2.36-2.92-.77-1.74,2.65L530,497.8l-3.33-.92,3.22-1.12-.15-3,1.84,2.36,3.11-1.13Zm11.62,14.87,3.11-1.14-1.75,2.86,1.84,2.37-2.92-.78-1.74,2.66L543,514.4l-3.32-.93,3.2-1.12-.15-3ZM541,502l-1.75,2.85,1.84,2.37-2.93-.78-1.73,2.66-.12-3.25L533,505l3.22-1.13-.15-3,1.84,2.37Zm11.68,20,1.84,2.36-2.93-.77-1.73,2.65-.12-3.25-3.33-.93,3.22-1.11-.15-3,1.84,2.36,3.11-1.13Zm5,6.33,3.11-1.12L559,530.11l1.85,2.37-2.92-.78-1.74,2.65-.12-3.24-3.33-.93,3.21-1.12-.15-3ZM574,544.25l-1.75,2.86,1.85,2.36-2.93-.77-1.73,2.65-.13-3.24-3.32-.93,3.21-1.12-.15-3,1.85,2.36Zm-8.37-5.61,1.84,2.36-2.93-.77-1.73,2.66-.12-3.25-3.33-.93,3.21-1.12-.15-3,1.85,2.36,3.11-1.13Zm14.77,18.9-2.92-.77-1.74,2.65-.12-3.25-3.32-.93,3.21-1.11-.15-3,1.85,2.36,3.1-1.13-1.75,2.86Zm-93.62,2.83L485.06,563l-.12-3.25-3.33-.93,3.21-1.11-.15-3,1.85,2.36,3.11-1.13-1.76,2.86,1.85,2.36Zm4.79,6-.15-3,1.85,2.36,3.11-1.13-1.76,2.86,1.85,2.36-2.93-.77-1.73,2.65-.12-3.25-3.33-.92Zm8,7.39,3.11-1.13-1.76,2.85,1.85,2.37-2.93-.78-1.73,2.65-.13-3.24-3.32-.93,3.21-1.12-.15-3Zm6.94,11.84-1.73,2.66-.13-3.25-3.32-.93,3.21-1.12-.15-3,1.85,2.36,3.11-1.13L507.61,584l1.85,2.36Zm4.5,2.79,1.85,2.36,3.11-1.13-1.76,2.86,1.85,2.36-2.92-.77-1.74,2.65-.12-3.24-3.33-.93,3.21-1.12Zm8.16,10.43,3.11-1.13-1.75,2.86,1.84,2.36-2.93-.77-1.73,2.65-.12-3.25-3.33-.92,3.21-1.12-.14-3ZM453.94,515.4l3.1-1.14-1.75,2.86,1.84,2.37-2.92-.78-1.73,2.66-.13-3.25-3.32-.93,3.21-1.11-.15-3.05Zm9.51,12.15-2.93-.77-1.73,2.66-.13-3.25-3.32-.93,3.21-1.12-.15-3,1.85,2.36,3.11-1.13-1.76,2.86Zm3.47,4.44,3.1-1.13-1.75,2.86,1.85,2.36-2.93-.77L465.46,538l-.13-3.24-3.32-.93,3.21-1.12-.15-3Zm4.77,6.11,1.85,2.36,3.11-1.13-1.76,2.86,1.85,2.36-2.93-.77-1.73,2.65-.12-3.24-3.33-.93,3.21-1.12Zm6.46,11.11-.15-3,1.85,2.36L483,547.4l-1.76,2.86,1.85,2.36-2.93-.78-1.73,2.66-.12-3.25-3.33-.92Z"/><path class="cls-2" d="M488.42,477.56l.63-.49,2,2.53-.64.49-.22-.28-24.09,18.83.14.18a1.81,1.81,0,0,0,1.6.51l23.34-18.26-.23-.28.64-.5,2,2.59-.64.5-.22-.29L469.3,501.43a1.64,1.64,0,0,0,.17,1.53l0,.06,24.08-18.83-.18-.23.64-.5,2,2.54-.63.49-.18-.23L475,502.12a9.22,9.22,0,0,1-3.67,1.85c-1.21.27-2,.11-2.5-.46a2,2,0,0,1-.11-2.05,7.91,7.91,0,0,1,1.89-2.69,8.86,8.86,0,0,1-3.11,1.14,2,2,0,0,1-1.91-.55c-.48-.62-.45-1.48.11-2.6a9.21,9.21,0,0,1,2.67-3.11l20.28-15.86Zm73.74,94.17c.54-.11.91,0,1.12.23a1.06,1.06,0,0,1,0,1.15,4.6,4.6,0,0,1-1.27,1.46q-4.32,3.38-19,13.63l-.36-.47q13.36-11.65,17.8-15.12A4.48,4.48,0,0,1,562.16,571.73ZM552.5,559.5l.64-.5,3.65,4.67-4.67,3.65-.22-.29,3.17-4.25-.81-1-15.73,12.31,1,1.32,2.9-1.15.23.28-5.42,4.24-.22-.29,1.82-2.54-1-1.32-7.66,6,.81,1,4.66-1.88.22.29-4.49,3.51-3.65-4.66.69-.55.22.29,24.09-18.84Zm-5.76-7.38-.27-.35-24.09,18.84.27.35-.69.54-2.16-2.77.69-.54.22.29,22-17.21-24.64,15.27-.45-.57,18.75-18.3L518,562.1l-.72,2-.63.49-1.71-2.19.63-.49,2.1-.16L540.38,544l-.27-.35.63-.49,1.67,2.13-15.85,15.46,18.83-11.66,2,2.53Zm-14.47-19.8.54.69c.49.62.43,1.5-.16,2.64a10.13,10.13,0,0,1-2.92,3.4l-15.79,12.34a9.15,9.15,0,0,1-3.88,1.92c-1.29.33-2.18.19-2.65-.42l-.55-.69c-.51-.66-.46-1.59.14-2.8a10.09,10.09,0,0,1,2.84-3.25l15.79-12.35a10.82,10.82,0,0,1,4-2.07C530.87,531.47,531.76,531.67,532.27,532.32Zm-.91.25-24,18.8.9,1.15,24-18.79Zm10.57,57.21a4.24,4.24,0,0,1-1.22,1.42,3.75,3.75,0,0,1-1.77.82c-.53.11-.89.05-1.07-.18s-.18-.67.09-1.19a4.19,4.19,0,0,1,1.16-1.37,4.62,4.62,0,0,1,1.72-.88c.54-.18.94-.11,1.18.2S542.2,589.26,541.93,589.78Zm-19.57-70.13,2.34,3L520,526.29l-.27-.34,3.22-4.19-1.26-1.62a.79.79,0,0,0-.29-.24l-24,18.79a3.19,3.19,0,0,0,.22.29l1.26,1.61,4.62-1.94.27.35-4.5,3.52-2.34-3c-.51-.65-.45-1.57.18-2.74a9.33,9.33,0,0,1,2.8-3.3l15.79-12.36a10.86,10.86,0,0,1,3.95-2.07C521,518.79,521.85,519,522.36,519.65Zm-11.81-13.8.63-.49,2,2.53-.63.5-.22-.29-24.09,18.83.81,1,4.83-2,.23.29-4.67,3.65-3.65-4.67.7-.54.22.29,24.09-18.84ZM505.46,498l-4.67,3.65-.22-.29,3.17-4.25-.81-1L487.2,508.42l1,1.32,2.9-1.15.23.28L486,513.11l-.22-.29,1.82-2.54-1-1.32-7.66,6,.81,1,4.66-1.88.22.29-4.49,3.51-3.65-4.66.69-.55.22.29,24.09-18.83-.23-.29.64-.5Z"/><path class="cls-3" d="M636.73,394.46l55,205.23-2.33.62a4,4,0,0,0-.89-.74,3.58,3.58,0,0,0-2.56-.23,3.23,3.23,0,0,0-2,1.44,3.38,3.38,0,0,0-.42,1.1l-1.59.42a4.59,4.59,0,0,0-.88-.75,3.67,3.67,0,0,0-2.57-.22,3.26,3.26,0,0,0-2,1.44,3.66,3.66,0,0,0-.42,1.09l-2.3.62a3.09,3.09,0,0,0-.88-.75,3.58,3.58,0,0,0-2.56-.22,3.25,3.25,0,0,0-2,1.43,4.42,4.42,0,0,0-.46,1.11l-1.91.51a3.09,3.09,0,0,0-.88-.75,3.64,3.64,0,0,0-2.56-.22,3.23,3.23,0,0,0-2,1.44,4.42,4.42,0,0,0-.46,1.11l-2.26.6a3.24,3.24,0,0,0-.88-.75,3.67,3.67,0,0,0-2.57-.22,3.26,3.26,0,0,0-2,1.44,4.32,4.32,0,0,0-.45,1.1l-1.92.52a2.82,2.82,0,0,0-.88-.75,3.51,3.51,0,0,0-2.55-.22,3.2,3.2,0,0,0-2,1.43,4.83,4.83,0,0,0-.46,1.11l-2.61.7a3.24,3.24,0,0,0-.88-.75,3.59,3.59,0,0,0-2.56-.22,3.26,3.26,0,0,0-2,1.43,4.79,4.79,0,0,0-.45,1.11l-1.56.42a3.09,3.09,0,0,0-.88-.75,3.58,3.58,0,0,0-2.56-.22,3.18,3.18,0,0,0-2,1.43,4.42,4.42,0,0,0-.46,1.11l-2.27.61a3,3,0,0,0-.88-.75,3.51,3.51,0,0,0-2.55-.22,3.24,3.24,0,0,0-2,1.43,4.83,4.83,0,0,0-.46,1.11l-1.9.51a3.28,3.28,0,0,0-.89-.75,3.61,3.61,0,0,0-2.55-.22,3.25,3.25,0,0,0-2,1.44,4.58,4.58,0,0,0-.46,1.1l-2.26.61a3.09,3.09,0,0,0-.88-.75,3.58,3.58,0,0,0-2.56-.22,3.21,3.21,0,0,0-2,1.43,4.42,4.42,0,0,0-.46,1.11l-1.91.51a3.09,3.09,0,0,0-.88-.75,3.64,3.64,0,0,0-2.56-.22,3.23,3.23,0,0,0-2,1.44,4.87,4.87,0,0,0-.47,1.11l-1.2.32a3,3,0,0,0-.88-.75,3.64,3.64,0,0,0-2.56-.23,3.26,3.26,0,0,0-2,1.44,4.83,4.83,0,0,0-.46,1.11l-1.34.36-55-205.23Z"/><path class="cls-2" d="M640.66,434.09l-2.87-10.67q-3.1-11.6-13.6-10.36a22.87,22.87,0,0,1-6.26,8.57,45.43,45.43,0,0,1-3.75,3,22,22,0,0,0,8.16,8.11,20.83,20.83,0,0,0,16.3,2.07A15.46,15.46,0,0,0,640.66,434.09Zm.68,2.54c-.7.24-1.4.45-2.1.64A23.2,23.2,0,0,1,621,434.9a23.76,23.76,0,0,1-9-8.88,59.59,59.59,0,0,1-16.86,7.17,65.7,65.7,0,0,1-8.4,1.72c-.91.15-1.82.27-2.7.35a49.07,49.07,0,0,1-9.46,0,22.8,22.8,0,0,1-3.07,9.46A23.45,23.45,0,0,1,556.79,456a25.58,25.58,0,0,1-5.82.88l33.79,126a25.52,25.52,0,0,1,5.48-2.15,23.43,23.43,0,0,1,18.35,2.35,22.73,22.73,0,0,1,7.39,6.65,48.87,48.87,0,0,1,8.21-4.7q1.2-.56,2.52-1a67.9,67.9,0,0,1,8.13-2.72A59.75,59.75,0,0,1,653,579a23.68,23.68,0,0,1,3.33-12.17A23.18,23.18,0,0,1,671,555.67c.7-.19,1.41-.36,2.13-.5Zm-16.53-27.45q10.77-1.06,14,10.87l40.42,150.76q3.21,11.94-6.66,16.4a28.8,28.8,0,0,1-3.4,1.14,9.93,9.93,0,0,0-2.7-3,20.07,20.07,0,0,0-8.22-3.55l-2.38-.42a22.69,22.69,0,0,0,.62,3.17,24.21,24.21,0,0,0,1.08,3.18,23.14,23.14,0,0,0,1.78,3.24L618.07,602a21.67,21.67,0,0,0-.65-3.53v-.07a20.85,20.85,0,0,0-2.15-5.19.33.33,0,0,0-.13.11,21,21,0,0,0-5.48,7.23,9.91,9.91,0,0,0-.83,3.93l-5,1.33q-13.85,3.72-17.56-10.13L545.88,445Q542.17,431.12,556,427.4l4.94-1.33a10,10,0,0,0,2.7,3,20.67,20.67,0,0,0,8.36,3.51.2.2,0,0,0,.16,0,20.68,20.68,0,0,0-.73-5.56l0-.07a21.3,21.3,0,0,0-1.21-3.39l41.25-11.06a23.19,23.19,0,0,0,1.79,10l1.85-1.55a20,20,0,0,0,5.35-7.19,10.12,10.12,0,0,0,.84-3.94A29.13,29.13,0,0,1,624.81,409.18Zm0,30.89L656.57,558.4l-3.53,1L621.31,441ZM611,424.16a28.59,28.59,0,0,1-1.37-4,26.17,26.17,0,0,1-.66-3.31l-35.18,9.43,0,.07a24.66,24.66,0,0,1,.88,6.66,39.68,39.68,0,0,0,8.75.15,25.81,25.81,0,0,0,2.72-.27,54,54,0,0,0,8.51-1.6A52.94,52.94,0,0,0,611,424.16Zm-52.82,6.36q-13.35,3.59-9.79,16.86l1.83,6.85A21.3,21.3,0,0,0,572.06,435a22.81,22.81,0,0,1-2.38-.41q-6.58-1.43-10-4.43Zm14.34,23.57,31.73,118.33-3.53,1L569,455ZM673.81,557.72a16,16,0,0,0-2.09.4,20.81,20.81,0,0,0-13.08,10,22,22,0,0,0-3,11.1,43.94,43.94,0,0,1,4.73.71,22.75,22.75,0,0,1,9.71,4.28q9.7-4.18,6.6-15.78Zm-20.68,23.42a53,53,0,0,0-17.73,1.94,53.87,53.87,0,0,0-8.17,2.88,23.51,23.51,0,0,0-2.49,1.12,40.2,40.2,0,0,0-7.5,4.51,25,25,0,0,1,2.57,6.2l0,.07L655,588.43a24,24,0,0,1-1.08-3.2A26.55,26.55,0,0,1,653.13,581.14Zm-41,11.67a22.59,22.59,0,0,1,1.86-1.56,21.17,21.17,0,0,0-23-8.07,21.77,21.77,0,0,0-5.51,2.31l1.84,6.86q3.57,13.27,16.91,9.7l1.42-.38Q607.12,597.34,612.11,592.81Z"/><path class="cls-7" d="M640.66,434.09a15.46,15.46,0,0,1-2,.69,20.83,20.83,0,0,1-16.3-2.07,22,22,0,0,1-8.16-8.11,45.43,45.43,0,0,0,3.75-3,22.87,22.87,0,0,0,6.26-8.57q10.5-1.23,13.6,10.36Zm.68,2.54,31.78,118.54c-.72.14-1.43.31-2.13.5a23.18,23.18,0,0,0-14.64,11.2A23.68,23.68,0,0,0,653,579a59.75,59.75,0,0,0-18.18,2.22,67.9,67.9,0,0,0-8.13,2.72q-1.32.49-2.52,1a48.87,48.87,0,0,0-8.21,4.7,22.73,22.73,0,0,0-7.39-6.65,23.43,23.43,0,0,0-18.35-2.35,25.52,25.52,0,0,0-5.48,2.15L551,456.85a25.58,25.58,0,0,0,5.82-.88,23.45,23.45,0,0,0,14.71-11.21,22.8,22.8,0,0,0,3.07-9.46,49.07,49.07,0,0,0,9.46,0c.88-.08,1.79-.2,2.7-.35a65.7,65.7,0,0,0,8.4-1.72A59.59,59.59,0,0,0,612,426a23.76,23.76,0,0,0,9,8.88,23.2,23.2,0,0,0,18.28,2.37C639.94,437.08,640.64,436.87,641.34,436.63Zm-16.5,3.44-3.53.94L653,559.35l3.53-1ZM611,424.16a52.94,52.94,0,0,1-16.33,7.18,54,54,0,0,1-8.51,1.6,25.81,25.81,0,0,1-2.72.27,39.68,39.68,0,0,1-8.75-.15,24.66,24.66,0,0,0-.88-6.66l0-.07L609,416.9a26.17,26.17,0,0,0,.66,3.31A28.59,28.59,0,0,0,611,424.16Zm-38.48,29.93L569,455l31.73,118.34,3.53-1Zm-14.34-23.57,1.41-.38q3.47,3,10,4.43a22.81,22.81,0,0,0,2.38.41,21.66,21.66,0,0,1-21.8,19.25l-1.83-6.85Q544.86,434.1,558.22,430.52Zm115.59,127.2,2.86,10.66q3.11,11.6-6.6,15.78a22.75,22.75,0,0,0-9.71-4.28,43.94,43.94,0,0,0-4.73-.71,22,22,0,0,1,3-11.1,20.81,20.81,0,0,1,13.08-10A16,16,0,0,1,673.81,557.72Zm-20.68,23.42a26.55,26.55,0,0,0,.8,4.09,24,24,0,0,0,1.08,3.2l-35.18,9.43,0-.07a25,25,0,0,0-2.57-6.2,40.2,40.2,0,0,1,7.5-4.51,23.51,23.51,0,0,1,2.49-1.12,53.87,53.87,0,0,1,8.17-2.88A53,53,0,0,1,653.13,581.14Zm-41,11.67q-5,4.53-6.48,8.86l-1.42.38q-13.35,3.59-16.91-9.7l-1.84-6.86a21.77,21.77,0,0,1,5.51-2.31,21.17,21.17,0,0,1,23,8.07A22.59,22.59,0,0,0,612.11,592.81Z"/><polygon class="cls-3" points="632.56 597.29 634.48 604.48 628.76 599.85 622.28 604.25 625.01 596.84 618.67 591.67 626.82 592.11 629.35 585.31 631.22 592.33 639.26 592.69 632.56 597.29"/><polygon class="cls-3" points="583.96 432.62 585.88 439.81 580.16 435.18 573.68 439.58 576.41 432.17 570.07 427 578.22 427.43 580.74 420.64 582.62 427.65 590.66 428.02 583.96 432.62"/><path class="cls-3" d="M633.12,445.41l3.3.17-2.73,1.94.78,2.9-2.4-1.86-2.63,1.77,1.16-3-2.7-2.15,3.39.23,1.06-2.86Zm6,22.46.77,2.9-2.39-1.86-2.63,1.77,1.16-3-2.7-2.16,3.39.23,1-2.85.78,2.89,3.3.18Zm-2-7.56-2.39-1.85-2.64,1.76,1.16-3-2.7-2.15,3.4.22,1-2.85.77,2.9,3.31.17-2.74,1.95Zm4.81,17.94.78,2.9-2.39-1.86-2.64,1.77,1.16-3-2.7-2.15,3.39.23,1.06-2.86.77,2.9,3.31.17Zm8.19,18.41-2.73,1.94.77,2.9-2.39-1.86-2.63,1.77,1.16-3-2.7-2.16,3.39.23,1-2.85.78,2.89Zm-2.8-10.46-2.74,1.95.78,2.89L643,489.19,640.33,491l1.16-3-2.7-2.16,3.4.23,1-2.86L644,486Zm2.91,23,.77,2.9-2.39-1.86L646,512l1.16-3-2.7-2.16,3.39.23,1-2.86.78,2.9,3.3.18Zm2.08,7.77,3.3.17-2.73,2,.77,2.9-2.38-1.86-2.64,1.76,1.16-3-2.7-2.16,3.39.23,1-2.86Zm5.59,20.84,3.3.18-2.73,1.94.77,2.9L656.85,541l-2.63,1.77,1.16-3-2.7-2.16,3.39.23,1-2.85Zm-2.22-8.26.78,2.89-2.39-1.85-2.64,1.76,1.16-3-2.7-2.15,3.4.22,1.05-2.85.77,2.89,3.31.18Zm6.22,23.17-2.39-1.86-2.64,1.76,1.16-3-2.7-2.15,3.39.22,1-2.86.78,2.9,3.3.17-2.73,2ZM572,520.48l1.15-3-2.69-2.16,3.39.23,1-2.86.78,2.9,3.3.17-2.73,1.95.77,2.9-2.39-1.86Zm4.69,5.64,1-2.86.78,2.9,3.3.17-2.74,1.95.78,2.89-2.39-1.86-2.63,1.77,1.15-3-2.69-2.15Zm4.48,9.93,3.3.17-2.73,1.95.77,2.89-2.39-1.86L577.49,541l1.16-3-2.7-2.16,3.39.23,1-2.86Zm1.76,13.61-2.63,1.77,1.15-3-2.7-2.15,3.39.22,1.06-2.85.77,2.89,3.3.18-2.73,1.94.78,2.9ZM586,554l.78,2.9,3.3.17-2.73,2,.77,2.89-2.39-1.85-2.63,1.76,1.16-3-2.7-2.15,3.39.23Zm3.43,12.79,3.3.17L590,568.9l.77,2.89-2.38-1.85-2.64,1.76,1.16-3-2.7-2.16,3.39.23,1-2.86ZM562,464.48l3.3.18-2.73,1.94.78,2.9-2.4-1.86-2.63,1.77,1.16-3-2.7-2.15,3.39.22,1.05-2.85Zm1.6,13L561,479.29l1.15-3-2.7-2.15,3.39.22,1.05-2.85.78,2.89,3.3.18-2.73,1.94.78,2.9Zm3.86,7.3,3.3.17L568,487l.78,2.89L566.39,488l-2.63,1.76,1.15-3-2.69-2.15,3.39.23,1-2.86Zm2,7.49.78,2.89,3.3.18-2.73,1.94.78,2.9-2.4-1.86-2.63,1.77,1.16-3L565,495l3.39.22Zm1.6,12.74,1.06-2.85.77,2.89,3.3.18-2.73,1.94.78,2.9-2.4-1.86L569.19,510l1.16-3-2.7-2.15Z"/><path class="cls-2" d="M613.93,443.15l.78-.22.83,3.12-.78.2-.09-.35-29.53,7.92.06.21a1.78,1.78,0,0,0,1.27,1.1l28.62-7.68-.1-.35.78-.21.85,3.18-.78.21-.09-.35L587,457.64a1.65,1.65,0,0,0-.44,1.48l0,.07,29.53-7.92L616,451l.78-.21.83,3.11-.77.2-.08-.28-24.87,6.67a9.41,9.41,0,0,1-4.09.27c-1.22-.23-1.93-.7-2.12-1.4a2,2,0,0,1,.7-1.93,7.85,7.85,0,0,1,2.79-1.74,9,9,0,0,1-3.31-.17c-.87-.27-1.39-.69-1.54-1.25-.21-.75.17-1.54,1.11-2.35a9.13,9.13,0,0,1,3.68-1.81L614,443.43Zm31,115.48c.54.11.85.33.94.66a1.07,1.07,0,0,1-.48,1,4.68,4.68,0,0,1-1.75.84q-5.29,1.43-22.78,5.13l-.15-.57q16.85-5.49,22.29-7A4.66,4.66,0,0,1,645,558.63Zm-6.53-24.07-.11-.42-29.53,7.91.11.43-.85.23-.9-3.39.84-.23.1.35,27-7.23-28.66,4.42-.18-.71,24.41-9.5-22.61,6.07-1.46,1.6-.78.21-.72-2.68.78-.21,2,.67,27.9-7.48-.11-.42.78-.21.69,2.61-20.63,8,21.89-3.37.83,3.11Zm2.43,9,.77-.2,1.54,5.72-5.72,1.53-.1-.35,4.59-2.67-.34-1.27-19.29,5.17.44,1.62,3.12.08.1.35-6.65,1.78-.09-.35,2.67-1.63-.44-1.62-9.39,2.52.34,1.27,5,.09.09.35L612,557.47l-1.53-5.72.85-.23.09.36L641,544Zm-8.94-33-29.46,7.9.38,1.41,29.46-7.9Zm.94.13.23.84c.2.76-.19,1.55-1.18,2.37a10.12,10.12,0,0,1-4,2l-19.36,5.19a9.44,9.44,0,0,1-4.33.25c-1.31-.2-2.07-.68-2.27-1.43l-.23-.85c-.22-.8.19-1.64,1.22-2.52a10.12,10.12,0,0,1,3.88-1.88l19.36-5.19a10.94,10.94,0,0,1,4.45-.36C631.91,509.35,632.66,509.89,632.87,510.69Zm-13,55.59c.09.33-.1.68-.55,1.06a4,4,0,0,1-1.67.82,3.64,3.64,0,0,1-2,.07c-.54-.1-.84-.3-.92-.58s.1-.69.55-1.06a4.11,4.11,0,0,1,1.6-.81,4.5,4.5,0,0,1,1.93-.14C619.4,565.69,619.74,565.9,619.84,566.28Zm9.85-67.46L624,500.35l-.12-.42,4.61-2.6-.53-2a.85.85,0,0,0-.17-.33l-29.46,7.9c0,.09.06.21.1.35l.53,2,5,0,.12.42-5.51,1.48-1-3.67c-.21-.8.2-1.62,1.24-2.45a9.41,9.41,0,0,1,3.87-1.95L622,493.91a10.94,10.94,0,0,1,4.45-.36q1.92.39,2.25,1.59Zm-6.46-21,.78-.21.83,3.11-.77.21-.1-.35-29.53,7.91.34,1.28,5.23,0,.1.36-5.72,1.53L592.85,486l.85-.23.1.35,29.53-7.91Zm-1.63-9.18-5.72,1.54-.09-.36,4.58-2.66-.34-1.28-19.29,5.18.44,1.62,3.12.07.1.35-6.64,1.78-.1-.35,2.67-1.62-.43-1.63-9.4,2.52.34,1.27,5,.1.1.35L590.45,477l-1.54-5.73.85-.22.1.35,29.53-7.92-.1-.35.78-.21Z"/><path class="cls-4" d="M950.59,513.51l96.79-32.13-28.11,85.15,34.54,54.22-73.7,38.56L978.9,570l-12-3.62-.4-40.57ZM382.67,659.31l-74.9-38.56,33.33-54.22-30.52-85.15,97.6,32.13-15.26,12.25.8,40.57L381.47,570Z"/><path class="cls-9" d="M951,540l-.4-26.51,15.86,12.25ZM978.9,570H933.12l-.2-13.26,33.93,9.64Zm-586-44.19,15.26-12.25.4,26.51Zm.8,40.57,33.54-9.64.2,13.26h-46Z"/><polygon class="cls-10" points="381.47 569.95 427.45 569.95 933.12 569.95 978.9 569.95 980.11 659.31 980.91 731 383.48 731 382.68 659.31 381.47 569.95"/><path class="cls-11" d="M966.85,566.33l-33.93-9.64L951,540l15.46-14.26Zm-539.59-9.64-33.54,9.64-.8-40.57L408.58,540Z"/><path class="cls-12" d="M435.1,617.49l7.44,29.2,3.3-15.77V648.2l-8.73,40.35h-2l-14.66-59.92a11.7,11.7,0,0,0-1.59-4.06,3,3,0,0,0-1.7-1,3.11,3.11,0,0,1-2.46-3.23,3,3,0,0,1,.7-2.11,2.63,2.63,0,0,1,2-.75Zm-14.66,23.94,4,15.73v15.67a33.14,33.14,0,0,0,.13,3.43,10.9,10.9,0,0,0,.59,2.29,7.53,7.53,0,0,0,2.19,3.44l1.4,1.24a3.45,3.45,0,0,1,1.44,2.66c0,1.77-.95,2.66-2.84,2.66h-9.48c-1.9,0-2.84-.87-2.84-2.61a2.57,2.57,0,0,1,.25-1.27,3.62,3.62,0,0,1,1-1c2.79-2.08,4.2-5.69,4.2-10.82ZM449,617.49h17.8c1.9,0,2.84.9,2.84,2.7a2.75,2.75,0,0,1-1.52,2.81c-.83.39-1.32.62-1.45.71a1.45,1.45,0,0,0-.44.59,5.92,5.92,0,0,0-.45,2.66v52.11a5.81,5.81,0,0,0,.45,2.65,1.56,1.56,0,0,0,.44.61c.13.08.62.32,1.45.7a2.76,2.76,0,0,1,1.52,2.81c0,1.8-.94,2.71-2.84,2.71H447.72a3.87,3.87,0,0,1-2.51-.71,2.6,2.6,0,0,1-.85-2.11,2.64,2.64,0,0,1,1.82-2.86c1-.34,1.56-.56,1.74-.65a1.45,1.45,0,0,0,.52-.6,5.89,5.89,0,0,0,.57-3Z"/><path class="cls-12" d="M503.47,621.7a5.7,5.7,0,0,0-2.72,2.55A11.11,11.11,0,0,0,500,629v46.54q0,4.59.9,6.46a4.28,4.28,0,0,0,2.61,2.23V690q-8.39-.93-14.06-8.69Q482,671.15,482,653.09A63.19,63.19,0,0,1,484,636.72a35.82,35.82,0,0,1,5.76-12.42,22.31,22.31,0,0,1,6.28-5.93,16.24,16.24,0,0,1,7.44-2.29Zm3.1,0v-5.62a16.39,16.39,0,0,1,7.46,2.29,22.37,22.37,0,0,1,6.3,5.93Q528,634.67,528,653.09q0,18.07-7.37,28.17-5.67,7.8-14.1,8.69v-5.73a4.08,4.08,0,0,0,1.53-.8,4.72,4.72,0,0,0,1-1.43,15.69,15.69,0,0,0,1-6.46V629a11.33,11.33,0,0,0-.68-4.37,5.23,5.23,0,0,0-1.07-1.72A6.68,6.68,0,0,0,506.57,621.7Z"/><path class="cls-12" d="M568.7,670.33l-3.59,18.22h-9.94l-13.46-62.22a8.05,8.05,0,0,0-.57-1.89,2.26,2.26,0,0,0-.83-.86,4.63,4.63,0,0,1-1.58-1.25,3.67,3.67,0,0,1,.64-4.17,4,4,0,0,1,2.6-.67h16.82a15,15,0,0,1,2.18.1,2.11,2.11,0,0,1,1,.41,2.94,2.94,0,0,1,.64,1,3.48,3.48,0,0,1,.27,1.3,3,3,0,0,1-1.33,2.76,4.11,4.11,0,0,0-1.34,1.38,4.63,4.63,0,0,0-.35,2,7.89,7.89,0,0,0,.11,1.46Zm1.43-7.45-2-9.79,4.35-21.91q.4-2.08.45-2.55a6.7,6.7,0,0,0-.38-2.55,3.67,3.67,0,0,0-1.89-2.4l-1.25-.62a2.65,2.65,0,0,1-1.47-2.66,2.79,2.79,0,0,1,.83-2.16,3.34,3.34,0,0,1,2.31-.75h9.26a3.75,3.75,0,0,1,2.27.46,2.81,2.81,0,0,1,.91,2.24,3.53,3.53,0,0,1-.29,1.56,2.73,2.73,0,0,1-1,1L580.26,624a7.52,7.52,0,0,0-2.32,3.1,22.19,22.19,0,0,0-1.72,5.29Z"/><path class="cls-12" d="M615.56,688.55H597.72a2.93,2.93,0,0,1-2.1-.71,2.63,2.63,0,0,1-.74-2A2.76,2.76,0,0,1,596.4,683c.83-.38,1.32-.62,1.46-.7a1.56,1.56,0,0,0,.43-.61,5.81,5.81,0,0,0,.45-2.65V627a5.92,5.92,0,0,0-.45-2.66,1.45,1.45,0,0,0-.43-.59c-.14-.09-.63-.32-1.46-.71a2.75,2.75,0,0,1-1.52-2.81,2.65,2.65,0,0,1,.74-2,2.93,2.93,0,0,1,2.1-.7h18.82a2.91,2.91,0,0,1,2.1.7,2.65,2.65,0,0,1,.74,2,2.76,2.76,0,0,1-1.51,2.81c-.83.39-1.32.62-1.46.71a1.45,1.45,0,0,0-.43.59,5.76,5.76,0,0,0-.46,2.66v52.11a5.66,5.66,0,0,0,.46,2.65,1.56,1.56,0,0,0,.43.61c.14.08.63.32,1.46.7a2.77,2.77,0,0,1,1.51,2.81,2.63,2.63,0,0,1-.74,2,2.92,2.92,0,0,1-2.1.71Z"/><path class="cls-12" d="M654,617.49v71.06h-17.8a2.93,2.93,0,0,1-2.1-.71,2.63,2.63,0,0,1-.74-2,2.76,2.76,0,0,1,1.52-2.81c.83-.38,1.32-.62,1.46-.7a1.56,1.56,0,0,0,.43-.61,5.81,5.81,0,0,0,.45-2.65V627a5.92,5.92,0,0,0-.45-2.66,1.45,1.45,0,0,0-.43-.59c-.14-.09-.63-.32-1.46-.71a2.75,2.75,0,0,1-1.52-2.81,2.65,2.65,0,0,1,.74-2,2.93,2.93,0,0,1,2.1-.7H654Zm3.18,37.89v-6a10.74,10.74,0,0,0,3.25-3.18,13.12,13.12,0,0,0,1.55-4.58,7.53,7.53,0,0,1,.79-2.74,1.59,1.59,0,0,1,1.4-.75,1.67,1.67,0,0,1,1.66,1.3,10.6,10.6,0,0,1,.27,3.08v19.83a9.6,9.6,0,0,1-.4,3.38,1.44,1.44,0,0,1-1.45.94,1.59,1.59,0,0,1-1.37-.73,6.76,6.76,0,0,1-.79-2.44,15.7,15.7,0,0,0-1.84-5.52A5.71,5.71,0,0,0,657.13,655.38Zm.19-37.89h15.23v18.42a4.66,4.66,0,0,1-.45,2.35,1.57,1.57,0,0,1-1.44.72,1.46,1.46,0,0,1-1.21-.46,5.33,5.33,0,0,1-.72-1.93q-1.44-6-4.21-9.21a11.28,11.28,0,0,0-7.2-3.8Zm0,71.06v-5.62a14,14,0,0,0,4.06-1.46,13,13,0,0,0,3.23-2.87,17.7,17.7,0,0,0,2.59-4,31.93,31.93,0,0,0,1.83-5.44,7,7,0,0,1,.87-2.27,1.51,1.51,0,0,1,1.25-.59,1.48,1.48,0,0,1,1.47.86,7.46,7.46,0,0,1,.42,3v18.38Z"/><path class="cls-12" d="M712,617.49H722v6.3a9.43,9.43,0,0,0-2.76,3.59,28,28,0,0,0-2.19,8.38l-.37,3.17a5,5,0,0,1-.82,2.37,1.86,1.86,0,0,1-3.18-.08,4.37,4.37,0,0,1-.62-2.44Zm29.79,0v61.16a5.72,5.72,0,0,0,.56,2.92,1.65,1.65,0,0,0,.57.65c.18.09.75.31,1.74.65a2.64,2.64,0,0,1,1.81,2.86,2.74,2.74,0,0,1-1,2.19,3.68,3.68,0,0,1-2.42.63H723.75a3.88,3.88,0,0,1-2.52-.71,2.59,2.59,0,0,1-.84-2.11,2.64,2.64,0,0,1,1.81-2.86c1-.34,1.56-.56,1.74-.65a1.48,1.48,0,0,0,.53-.65,5.72,5.72,0,0,0,.56-2.92V617.49Zm13.08,0v21.29a4.37,4.37,0,0,1-.63,2.44,1.86,1.86,0,0,1-3.18.08,5.16,5.16,0,0,1-.81-2.37l-.37-3.17a28.24,28.24,0,0,0-2.2-8.38,9.84,9.84,0,0,0-2.76-3.59v-6.3Z"/><path class="cls-12" d="M788,688.55H770.12a2.92,2.92,0,0,1-2.1-.71,2.63,2.63,0,0,1-.74-2A2.76,2.76,0,0,1,768.8,683c.83-.38,1.31-.62,1.46-.7a1.56,1.56,0,0,0,.43-.61,5.81,5.81,0,0,0,.45-2.65V627a5.92,5.92,0,0,0-.45-2.66,1.45,1.45,0,0,0-.43-.59c-.15-.09-.63-.32-1.46-.71a2.75,2.75,0,0,1-1.52-2.81,2.65,2.65,0,0,1,.74-2,2.91,2.91,0,0,1,2.1-.7h18.82a2.91,2.91,0,0,1,2.1.7,2.65,2.65,0,0,1,.74,2,2.76,2.76,0,0,1-1.51,2.81c-.84.39-1.32.62-1.46.71a1.29,1.29,0,0,0-.43.59,5.76,5.76,0,0,0-.46,2.66v52.11a5.66,5.66,0,0,0,.46,2.65,1.38,1.38,0,0,0,.43.61c.14.08.62.32,1.46.7a2.77,2.77,0,0,1,1.51,2.81,2.63,2.63,0,0,1-.74,2,2.92,2.92,0,0,1-2.1.71Z"/><path class="cls-12" d="M825.6,617.49l7.44,29.2,3.29-15.77V648.2l-8.73,40.35h-2l-14.67-59.92a11.31,11.31,0,0,0-1.59-4.06,2.92,2.92,0,0,0-1.7-1,3.1,3.1,0,0,1-2.45-3.23,3,3,0,0,1,.69-2.11,2.64,2.64,0,0,1,2-.75Zm-14.67,23.94,4,15.73v15.67a30.48,30.48,0,0,0,.13,3.43,10.32,10.32,0,0,0,.59,2.29,7.37,7.37,0,0,0,2.19,3.44l1.39,1.24a3.45,3.45,0,0,1,1.44,2.66c0,1.77-.94,2.66-2.83,2.66h-9.49c-1.89,0-2.84-.87-2.84-2.61a2.69,2.69,0,0,1,.25-1.27,3.62,3.62,0,0,1,1-1q4.2-3.12,4.2-10.82Zm28.58-23.94h17.8c1.89,0,2.84.9,2.84,2.7a2.75,2.75,0,0,1-1.52,2.81c-.83.39-1.32.62-1.46.71a1.45,1.45,0,0,0-.43.59,5.78,5.78,0,0,0-.45,2.66v52.11a5.68,5.68,0,0,0,.45,2.65,1.56,1.56,0,0,0,.43.61c.14.08.63.32,1.46.7a2.76,2.76,0,0,1,1.52,2.81c0,1.8-.95,2.71-2.84,2.71H838.22a3.83,3.83,0,0,1-2.51-.71,2.57,2.57,0,0,1-.86-2.11,2.64,2.64,0,0,1,1.82-2.86c1-.34,1.57-.56,1.74-.65a1.46,1.46,0,0,0,.53-.6,5.89,5.89,0,0,0,.57-3Z"/><path class="cls-12" d="M894.72,617.49v71.06h-17.8a2.92,2.92,0,0,1-2.1-.71,2.63,2.63,0,0,1-.74-2A2.76,2.76,0,0,1,875.6,683c.83-.38,1.31-.62,1.45-.7a1.46,1.46,0,0,0,.43-.61,5.66,5.66,0,0,0,.46-2.65V627a5.76,5.76,0,0,0-.46-2.66,1.37,1.37,0,0,0-.43-.59c-.14-.09-.62-.32-1.45-.71a2.75,2.75,0,0,1-1.52-2.81,2.65,2.65,0,0,1,.74-2,2.91,2.91,0,0,1,2.1-.7h17.8Zm3.17,37.89v-6a10.67,10.67,0,0,0,3.26-3.18,13.12,13.12,0,0,0,1.54-4.58,7.7,7.7,0,0,1,.8-2.74,1.59,1.59,0,0,1,1.4-.75,1.68,1.68,0,0,1,1.66,1.3,10.73,10.73,0,0,1,.26,3.08v19.83a9.67,9.67,0,0,1-.39,3.38,1.45,1.45,0,0,1-1.46.94,1.57,1.57,0,0,1-1.36-.73,6.57,6.57,0,0,1-.79-2.44,16.13,16.13,0,0,0-1.83-5.52A5.71,5.71,0,0,0,897.89,655.38Zm.19-37.89h15.23v18.42a4.55,4.55,0,0,1-.45,2.35,1.55,1.55,0,0,1-1.44.72,1.46,1.46,0,0,1-1.2-.46,5.49,5.49,0,0,1-.73-1.93,21.23,21.23,0,0,0-4.21-9.21,11.28,11.28,0,0,0-7.2-3.8Zm0,71.06v-5.62a13.78,13.78,0,0,0,4.06-1.46,12.83,12.83,0,0,0,3.24-2.87,18,18,0,0,0,2.58-4,31,31,0,0,0,1.84-5.44,6.55,6.55,0,0,1,.87-2.27,1.66,1.66,0,0,1,2.72.27,7.46,7.46,0,0,1,.42,3v18.38Z"/><path class="cls-12" d="M937.23,616q3.32,0,5.48,3.64a18,18,0,0,1,2.16,9.27,30.92,30.92,0,0,1-.42,4.87q-.42,2.52-1.62,7.67c-1.17,4.86-2,8.74-2.44,11.64a68.49,68.49,0,0,0-.85,8.51,7.11,7.11,0,0,1-.59,3,1.76,1.76,0,0,1-1.65.88,1.6,1.6,0,0,1-1.45-.75,5.45,5.45,0,0,1-.55-2.47c-.15-2.33-.27-4-.37-4.92s-.34-2.44-.73-4.45q-.9-4.89-2.33-10.52-1.71-6.6-2.14-9.06a30.68,30.68,0,0,1-.44-5.36,15.89,15.89,0,0,1,2.08-8.22Q933.53,616,937.23,616ZM937,669.7a6.27,6.27,0,0,1,5.18,3,13,13,0,0,1,0,14.31,6,6,0,0,1-10.39,0,12.93,12.93,0,0,1,0-14.31A6.29,6.29,0,0,1,937,669.7Z"/></svg>